{"title":"Beneath.Hill.60.DVDRip.X264.SDTeam.https://www,scenedemo.org","uid":5767919,"size":554957274,"categoryP":"video","categoryS":"movies","magnet":"?xt=urn:btih:55b29ee3062caaf19fe14a6a65feb26199b1dcf7&amp;dn=Beneath.Hill.60.DVDRip.X264.SDTeam.https%3A%2F%2Fwww%2Cscenedemo.org&amp;tr=udp%3A%2F%2Ftracker.openbittorrent.com%3A80&amp;tr=udp%3A%2F%2Fopen.demonii.com%3A1337&amp;tr=udp%3A%2F%2Ftracker.coppersurfer.tk%3A6969&amp;tr=udp%3A%2F%2Fexodus.desync.com%3A6969","seeders":0,"leechers":0,"uploader":"bg2k9","files":39,"time":1281983844,"description":"\nLanguage.....: English -(GREETZ TO THE GREATZ:\n[b][color=#FF0000] &lt;a href=&quot;\nhttp://www.SEEDBOXWORLD.biz(&quot; rel=&quot;nofollow&quot; target=&quot;_NEW&quot;&gt;\nhttp://www.SEEDBOXWORLD.biz(&lt;/a&gt; for your cheap fast seedbox needs )\n\nBadGirl2k9  \t \t \t\nUnDeaD \nalgpz500 \t\t\t\nvirusofsaten \t \t\t\nWICCYWOLF\t\nFoxyB \t\t\t \t\t\nJoker321[/color][/b]\n &lt;a href=&quot;\nhttp://www.imdb.com/title/tt1418646/&quot; rel=&quot;nofollow&quot; target=&quot;_NEW&quot;&gt;\nhttp://www.imdb.com/title/tt1418646/&lt;/a&gt;\n\n\nBeneath.Hill.60.DVDRip.X264.SDTeam\n\nThe extraordinary true story of Oliver Woodward. It's 1916 and Woodward must tear himself from his new young love to go to the mud and carnage of the Western Front. Deep beneath the German lines. Woodward and his secret platoon of Australian tunnelers fight to defend a leaking, labyrinthine tunnel system packed with enough high explosives to change the course of the War\n\nFormat                           : Matroska\nFile size                        : 529 MiB\nDuration                         : 1h 57mn\nOverall bit rate                 : 631 Kbps\nVideo\nID                               : 1\nFormat                           : AVC\nFormat/Info                      : Advanced Video Codec\nFormat profile                   : &lt;a class=&quot;__cf_email__&quot; href=&quot;/cdn-cgi/l/email-protection&quot; data-cfemail=&quot;8bc3e2ece3cbc7b9a5ba&quot;&gt;[email&amp;#160;protected]&lt;/a&gt;&lt;script data-cfhash='f9e31' type=&quot;text/javascript&quot;&gt;\n/* &lt;![CDATA[ */!function(){try{var t=&quot;currentScript&quot;in document?document.currentScript:function(){for(var t=document.getElementsByTagName(&quot;script&quot;),e=t.length;e--;)if(t[e].getAttribute(&quot;data-cfhash&quot;))return t[e]}();if(t&amp;&amp;t.previousSibling){var e,r,n,i,c=t.previousSibling,a=c.getAttribute(&quot;data-cfemail&quot;);if(a){for(e=&quot;&quot;,r=parseInt(a.substr(0,2),16),n=2;a.length-n;n+=2)i=parseInt(a.substr(n,2),16)^r,e+=String.fromCharCode(i);e=document.createTextNode(e),c.parentNode.replaceChild(e,c)}t.parentNode.removeChild(t);}}catch(u){}}()/* ]]&gt; */&lt;/script&gt;\nFormat settings, CABAC           : Yes\nFormat settings, ReFrames        : 4 frames\nMuxing mode                      : Container profile=&lt;a class=&quot;__cf_email__&quot; href=&quot;/cdn-cgi/l/email-protection&quot; data-cfemail=&quot;c792a9aca9a8b0a987f5e9f6&quot;&gt;[email&amp;#160;protected]&lt;/a&gt;&lt;script data-cfhash='f9e31' type=&quot;text/javascript&quot;&gt;\n/* &lt;![CDATA[ */!function(){try{var t=&quot;currentScript&quot;in document?document.currentScript:function(){for(var t=document.getElementsByTagName(&quot;script&quot;),e=t.length;e--;)if(t[e].getAttribute(&quot;data-cfhash&quot;))return t[e]}();if(t&amp;&amp;t.previousSibling){var e,r,n,i,c=t.previousSibling,a=c.getAttribute(&quot;data-cfemail&quot;);if(a){for(e=&quot;&quot;,r=parseInt(a.substr(0,2),16),n=2;a.length-n;n+=2)i=parseInt(a.substr(n,2),16)^r,e+=String.fromCharCode(i);e=document.createTextNode(e),c.parentNode.replaceChild(e,c)}t.parentNode.removeChild(t);}}catch(u){}}()/* ]]&gt; */&lt;/script&gt;\nCodec ID                         : V_MPEG4/ISO/AVC\nDuration                         : 1h 57mn\nBit rate                         : 486 Kbps\nNominal bit rate                 : 500 Kbps\nWidth                            : 624 pixels\nHeight                           : 256 pixels\nDisplay aspect ratio             : 2.40:1\nFrame rate mode                  : Variable\nFrame rate                       : 25.000 fps\nResolution                       : 8 bits\nColorimetry                      : 4:2:0\nScan type                        : Progressive\nBits/(Pixel*Frame)               : 0.122\nStream size                      : 407 MiB (77%)\n\nAudio\nID                               : 2\nFormat                           : MPEG Audio\nFormat version                   : Version 1\nFormat profile                   : Layer 3\nFormat_Settings_Mode             : Joint stereo\nFormat_Settings_ModeExtension    : MS Stereo\nCodec ID                         : A_MPEG/L3\nCodec ID/Hint                    : MP3\nDuration                         : 1h 57mn\nBit rate mode                    : Variable\nBit rate                         : 133 Kbps\nMinimum bit rate                 : 128 Kbps\nChannel(s)                       : 2 channels\nSampling rate                    : 48.0 KHz\nStream size                      : 111 MiB (21%)\nWriting library                  : LAME3.97 \nEncoding settings                : -m j -V 4 -q 3 -lowpass 17.5 --vbr-new -b 128\n\n\n\n\n\n\ngroup note: Thanx seedboxworld.biz for the seedbox  \n","torrent":{"xt":"urn:btih:55b29ee3062caaf19fe14a6a65feb26199b1dcf7","amp;dn":"Beneath.Hill.60.DVDRip.X264.SDTeam.https%3A%2F%2Fwww%2Cscenedemo.org","amp;tr":["udp%3A%2F%2Ftracker.openbittorrent.com%3A80","udp%3A%2F%2Fopen.demonii.com%3A1337","udp%3A%2F%2Ftracker.coppersurfer.tk%3A6969","udp%3A%2F%2Fexodus.desync.com%3A6969"],"infoHash":"55b29ee3062caaf19fe14a6a65feb26199b1dcf7","infoHashBuffer":{"type":"Buffer","data":[85,178,158,227,6,44,170,241,159,225,74,106,101,254,178,97,153,177,220,247]},"announce":[],"urlList":[]}}